<svg width="56" height="56" viewBox="16.5 10.5 35 35" fill="none" xmlns="http://www.w3.org/2000/svg">
 <g clip-path="url(#clip0_2156_1564)">
 <g clip-path="url(#clip1_2156_1564)">
 <mask id="mask0_2156_1564" style="mask-type:alpha" maskUnits="userSpaceOnUse" x="22" y="16" width="24" height="24">
 <path d="M34 22.36C37.1152 22.36 39.6352 25.072 39.5152 28.2136C39.4024 31.2016 36.8536 33.64 33.8632 33.64H29.9176C29.6536 33.64 29.4376 33.424 29.4376 33.16V22.84C29.4376 22.576 29.6536 22.36 29.9176 22.36H33.9976M34 16H24.4C23.6056 16 22.96 16.6456 22.96 17.44V38.56C22.96 39.3544 23.6056 40 24.4 40H34C40.6264 40 46 34.6264 46 28C46 21.3736 40.6264 16 34 16Z" fill="white"></path>
 </mask>
 <g mask="url(#mask0_2156_1564)">
 <rect x="22.96" y="16" width="23.04" height="24" fill="url(#paint0_radial_2156_1564)"></rect>
 <rect x="45.9999" y="40" width="23.04" height="24" transform="rotate(-180 45.9999 40)" fill="url(#paint1_radial_2156_1564)"></rect>
 <rect x="22.96" y="16" width="23.04" height="24" fill="url(#paint2_radial_2156_1564)"></rect>
 <rect x="22.96" y="16" width="23.04" height="24" fill="url(#paint3_radial_2156_1564)"></rect>
 <rect x="22.96" y="16" width="23.04" height="24" fill="url(#paint4_radial_2156_1564)"></rect>
 </g>
 </g>
 </g>
 <defs>
 <radialGradient id="paint0_radial_2156_1564" cx="0" cy="0" r="1" gradientUnits="userSpaceOnUse" gradientTransform="translate(23.32 16.48) rotate(47.9943) scale(27.6149 18.2643)">
 <stop stop-color="#1E84FF"></stop>
 <stop offset="1" stop-color="#1E84FF"></stop>
 </radialGradient>
 <radialGradient id="paint1_radial_2156_1564" cx="0" cy="0" r="1" gradientUnits="userSpaceOnUse" gradientTransform="translate(62.6799 40) rotate(90) scale(32.76 116.718)">
 <stop offset="0.0710642" stop-color="#F95F65"></stop>
 <stop offset="0.255335" stop-color="#F95F97" stop-opacity="0.85"></stop>
 <stop offset="0.488545" stop-color="#E952BE" stop-opacity="0.3"></stop>
 <stop offset="0.64993" stop-color="#1E84FF" stop-opacity="0"></stop>
 </radialGradient>
 <radialGradient id="paint2_radial_2156_1564" cx="0" cy="0" r="1" gradientUnits="userSpaceOnUse" gradientTransform="translate(43.12 19.96) rotate(133.452) scale(12.5628 13.3382)">
 <stop stop-color="#22BB64"></stop>
 <stop offset="0.598459" stop-color="#22BBA4" stop-opacity="0.5"></stop>
 <stop offset="1" stop-color="#61BACA" stop-opacity="0"></stop>
 </radialGradient>
 <radialGradient id="paint3_radial_2156_1564" cx="0" cy="0" r="1" gradientUnits="userSpaceOnUse" gradientTransform="translate(46 29.92) rotate(-170.538) scale(11.6789 14.112)">
 <stop stop-color="#2FD800"></stop>
 <stop offset="1" stop-color="#12EB1A" stop-opacity="0"></stop>
 </radialGradient>
 <radialGradient id="paint4_radial_2156_1564" cx="0" cy="0" r="1" gradientUnits="userSpaceOnUse" gradientTransform="translate(41.32 37.72) rotate(-126.545) scale(12.6962 17.5254)">
 <stop stop-color="#FFC622"></stop>
 <stop offset="0.524982" stop-color="#FFC622" stop-opacity="0.6"></stop>
 <stop offset="1" stop-color="#FFC622" stop-opacity="0"></stop>
 </radialGradient>
 <clipPath id="clip0_2156_1564">
 <rect width="56" height="56" fill="white"></rect>
 </clipPath>
 <clipPath id="clip1_2156_1564">
 <rect width="24" height="24" fill="white" transform="translate(22 16)"></rect>
 </clipPath>
 </defs>
 </svg>